<?xml version="1.0" encoding="UTF-8"?>
<svg version="1.1" xmlns="http://www.w3.org/2000/svg" width="297" height="145">
<path d="M0 0 C2.08692217 0.01928286 4.17384647 0.03833682 6.26077271 0.05717468 C10.60586476 0.09786748 14.9508825 0.1430487 19.29589844 0.19116211 C24.84684686 0.2520168 30.39781639 0.29882928 35.94892693 0.34199238 C40.2470968 0.37742467 44.54514362 0.42164373 48.8432045 0.46834373 C50.88997677 0.48928329 52.93678223 0.50721631 54.98360825 0.52199745 C57.84456 0.54370134 60.70512687 0.5776206 63.56591797 0.61450195 C64.81451347 0.6200988 64.81451347 0.6200988 66.08833313 0.62580872 C73.0864468 0.73749521 80.47288856 1.36780289 86.4453125 5.32421875 C87.07179687 5.72382813 87.69828125 6.1234375 88.34375 6.53515625 C93.60474702 10.84393662 94.9005828 16.48785467 96.0703125 22.94921875 C96.90181618 32.1290194 95.60829544 40.73592357 93.85546875 49.69921875 C93.07278555 53.75032046 92.59161796 57.78640327 92.1328125 61.88671875 C90.73122902 72.65498203 86.64318916 83.86971597 77.8203125 90.82421875 C69.95156381 95.66559483 61.55043116 96.3902675 52.51171875 96.390625 C51.42184662 96.40315308 50.33197449 96.41568115 49.20907593 96.42858887 C46.88520037 96.45455189 44.56125061 96.47447523 42.23727417 96.48880005 C36.14215081 96.52755544 30.04772758 96.61244865 23.953125 96.69921875 C22.7489946 96.7157399 21.5448642 96.73226105 20.304245 96.74928284 C10.51653228 96.90139697 0.77300348 97.35236445 -8.9921875 98.01171875 C-21.00645734 98.81783477 -32.92640151 99.12292257 -44.96508789 98.96313477 C-46.07489014 98.94951904 -47.18469238 98.93590332 -48.328125 98.921875 C-49.29411621 98.90390869 -50.26010742 98.88594238 -51.25537109 98.86743164 C-53.88909567 98.87042264 -53.88909567 98.87042264 -56.25671387 99.43377686 C-58.99550614 99.96191086 -61.58601488 100.16059112 -64.37158203 100.27807617 C-65.43684113 100.32449753 -66.50210022 100.37091888 -67.59963989 100.41874695 C-68.74238373 100.46360733 -69.88512756 100.50846771 -71.0625 100.5546875 C-72.25011932 100.60240799 -73.43773865 100.65012848 -74.66134644 100.69929504 C-77.17453216 100.79816756 -79.6878116 100.89468231 -82.20117188 100.98901367 C-86.02009637 101.13539287 -89.83804647 101.2989081 -93.65625 101.46289062 C-96.10412597 101.55705358 -98.55204187 101.65018533 -101 101.7421875 C-102.13059845 101.79312057 -103.2611969 101.84405365 -104.42605591 101.89653015 C-110.71978607 102.11111504 -116.45081999 101.74063858 -122.61598206 100.4241333 C-125.65252877 99.8008473 -128.64919468 99.64010713 -131.7421875 99.51171875 C-136.43575207 99.18840908 -140.02369222 98.79953963 -143.9296875 95.94921875 C-145.3046875 93.76171875 -145.3046875 93.76171875 -145.9296875 91.94921875 C-145.2696875 91.94921875 -144.6096875 91.94921875 -143.9296875 91.94921875 C-143.80851562 91.2015625 -143.68734375 90.45390625 -143.5625 89.68359375 C-143.39492187 88.69875 -143.22734375 87.71390625 -143.0546875 86.69921875 C-142.89226562 85.7246875 -142.72984375 84.75015625 -142.5625 83.74609375 C-141.9296875 80.94921875 -141.9296875 80.94921875 -140.9230957 79.05908203 C-139.82250114 76.72156956 -139.58117782 74.96304561 -139.40234375 72.39453125 C-139.33208984 71.53214844 -139.26183594 70.66976562 -139.18945312 69.78125 C-139.05852942 67.98461382 -138.93089494 66.18773475 -138.80664062 64.390625 C-138.241792 57.5615542 -138.241792 57.5615542 -136.4921875 54.12890625 C-133.98416056 49.02507143 -133.62104972 43.54579261 -132.8671875 37.94921875 C-132.54790616 35.63603188 -132.22384095 33.32349927 -131.89453125 31.01171875 C-131.756521 29.99207031 -131.61851074 28.97242187 -131.47631836 27.921875 C-130.9296875 24.94921875 -130.9296875 24.94921875 -129.8684082 21.78955078 C-128.37722803 17.27761577 -129.10270819 12.87702404 -129.4453125 8.19140625 C-128.9296875 4.94921875 -128.9296875 4.94921875 -126.41856384 2.77397156 C-122.33098677 0.63608617 -119.08645861 0.41652896 -114.59204102 0.51098633 C-113.36865776 0.51251961 -113.36865776 0.51251961 -112.12055969 0.51408386 C-109.43277893 0.52194546 -106.74613492 0.55794041 -104.05859375 0.59375 C-102.17497152 0.60376618 -100.29133811 0.61184712 -98.40769958 0.61808777 C-93.44679853 0.63900518 -88.48638066 0.68302159 -83.5256958 0.73284912 C-75.6195904 0.80809082 -67.71320631 0.84661415 -59.8068676 0.8883419 C-57.06691305 0.90579879 -54.32716101 0.93199413 -51.58729553 0.95991516 C-44.20980025 1.02296816 -36.9075194 1.02203281 -29.54614258 0.44873047 C-19.7011277 -0.30500383 -9.86561561 -0.10581041 0 0 Z " fill="#F7F7F6" transform="translate(166.9296875,19.05078125)"/>
<path d="M0 0 C12.0220325 -0.06953435 24.04401709 -0.12282885 36.06620979 -0.15543652 C41.64870435 -0.17108717 47.23106124 -0.19231473 52.81347656 -0.22631836 C58.20160143 -0.25893284 63.58959394 -0.27685753 68.97780991 -0.28463173 C71.03269407 -0.29017145 73.08757106 -0.30098918 75.14239883 -0.31719017 C78.02233746 -0.33899198 80.90173031 -0.34196574 83.78173828 -0.34057617 C84.62978531 -0.351362 85.47783234 -0.36214783 86.35157776 -0.3732605 C92.79656606 -0.3396486 96.85083798 1.13739292 101.8125 5.4375 C103.83179703 7.80296224 104.66344422 8.97099795 105 12 C105.66 12 106.32 12 107 12 C110.40620199 22.21860596 107.66833043 33.28875025 104 43 C103.34 43 102.68 43 102 43 C101.7215625 44.0209375 101.7215625 44.0209375 101.4375 45.0625 C99.44226615 49.139717 96.56759063 52.20011875 93 55 C92.28585938 55.17015625 91.57171875 55.3403125 90.8359375 55.515625 C90.23007813 55.67546875 89.62421875 55.8353125 89 56 C88.67 56.99 88.34 57.98 88 59 C82.03325384 60.32594359 76.07416385 60.0884587 70 60 C70.52956299 60.68775513 70.52956299 60.68775513 71.06982422 61.3894043 C72.67751591 63.48426728 74.27629598 65.58577126 75.875 67.6875 C76.43058594 68.40873047 76.98617187 69.12996094 77.55859375 69.87304688 C80.32688805 73.52519418 82.31485579 76.72169699 84 81 C85.485 81.495 85.485 81.495 87 82 C90 86.33333333 90 86.33333333 90 89 C66.03615609 91.04995425 66.03615609 91.04995425 59.80517578 87.88525391 C56.05248235 84.62712737 54.10781106 80.42738818 52 76 C50.84732268 74.28852476 49.66208906 72.59828118 48.4375 70.9375 C47.88835937 70.14085938 47.33921875 69.34421875 46.7734375 68.5234375 C44.03398352 64.62544792 41.14822682 60.83979159 38.28125 57.03515625 C36.02600929 54.03460482 33.78555105 51.02447706 31.5625 48 C30.92441406 47.13375 30.28632812 46.2675 29.62890625 45.375 C28.20083609 43.29282576 27.09828079 41.26402867 26 39 C27.03903473 39.00452431 27.03903473 39.00452431 28.09906006 39.00914001 C35.30188691 39.03368185 42.50338486 39.00965364 49.70605469 38.95727539 C52.39512753 38.94021481 55.08337967 38.94043564 57.77246094 38.95532227 C61.63567793 38.97029045 65.49636553 38.94071854 69.359375 38.90234375 C71.16580475 38.92372658 71.16580475 38.92372658 73.00872803 38.94554138 C78.79922342 39.07908384 78.79922342 39.07908384 83.65409851 36.46594238 C86.39132446 31.84577938 86.44335518 28.14292007 86 23 C84.15086057 21.15086057 81.1211518 21.82660785 78.64428711 21.79467773 C77.64920387 21.77982834 77.64920387 21.77982834 76.63401794 21.76467896 C74.43183005 21.73298263 72.22962055 21.70827466 70.02734375 21.68359375 C68.50419032 21.66303122 66.98104269 21.64203495 65.457901 21.62062073 C61.44168786 21.56532753 57.42542262 21.51595037 53.40911865 21.46777344 C49.31371401 21.41761118 45.21838539 21.36189764 41.12304688 21.30664062 C33.08209545 21.19897046 25.04108059 21.09754533 17 21 C16.68347551 23.52528437 16.3671853 26.05059772 16.05102539 28.57592773 C15.96247536 29.28220055 15.87392532 29.98847336 15.78269196 30.71614838 C14.84193868 38.23338753 13.94737861 45.75598685 13.05664062 53.27929688 C12.43102851 58.52985304 11.77895249 63.76989042 11 69 C10.34 69 9.68 69 9 69 C8.90912109 70.78857422 8.90912109 70.78857422 8.81640625 72.61328125 C8.73198851 74.17969925 8.64734113 75.74610488 8.5625 77.3125 C8.52318359 78.09818359 8.48386719 78.88386719 8.44335938 79.69335938 C8.40146484 80.45068359 8.35957031 81.20800781 8.31640625 81.98828125 C8.27974854 82.68477783 8.24309082 83.38127441 8.20532227 84.09887695 C8 86 8 86 7 89 C0.4 89 -6.2 89 -13 89 C-13.47199563 76.88544559 -11.66547322 65.11252252 -8.9375 53.328125 C-8.11115353 49.69830109 -7.63157181 46.15779128 -7.375 42.4375 C-7.26285156 40.88869141 -7.26285156 40.88869141 -7.1484375 39.30859375 C-7.09945312 38.54675781 -7.05046875 37.78492188 -7 37 C-6.34 37 -5.68 37 -5 37 C-5.02835938 35.83855469 -5.05671875 34.67710938 -5.0859375 33.48046875 C-5.08409714 29.29457146 -4.46404295 25.42048752 -3.625 21.3125 C-2.60963016 16.29206023 -1.71775597 11.28412411 -0.94677734 6.21948242 C-0.76883636 5.05341965 -0.59089539 3.88735687 -0.40756226 2.68595886 C-0.27306671 1.79959244 -0.13857117 0.91322601 0 0 Z " fill="#221E1C" transform="translate(47,24)"/>
<path d="M0 0 C10.64910647 -0.06971393 21.29815805 -0.12291956 31.94744682 -0.15543652 C36.89310683 -0.17104824 41.83860995 -0.19220392 46.78417969 -0.22631836 C51.56284234 -0.25907271 56.3413547 -0.27688676 61.120121 -0.28463173 C62.93725065 -0.2901465 64.7543727 -0.30091509 66.57143784 -0.31719017 C88.64010166 -0.50687475 88.64010166 -0.50687475 95.875 5.3125 C102.99723648 14.32003437 103.87016582 21.18775822 102.765625 32.37353516 C102.03089656 38.61268475 101.06301526 44.80909898 100 51 C99.85546387 51.84449707 99.71092773 52.68899414 99.56201172 53.55908203 C97.40187781 65.68980079 94.611318 74.84044955 84.67578125 82.859375 C82.58090226 84.28526 80.35828529 85.09830268 78 86 C77.505 87.485 77.505 87.485 77 89 C73.37873119 90.55295247 69.26214324 90.13301796 65.38574219 90.11352539 C64.62437958 90.11367142 63.86301697 90.11381744 63.07858276 90.1139679 C60.56798429 90.11327255 58.05746048 90.10549787 55.546875 90.09765625 C53.80381308 90.09579073 52.06075063 90.09436746 50.31768799 90.09336853 C45.73427884 90.08955394 41.15090149 90.07973267 36.56750488 90.06866455 C31.88875763 90.0584277 27.21000523 90.05386604 22.53125 90.04882812 C13.35415272 90.03810946 4.177079 90.02104572 -5 90 C-4.84867068 88.40737731 -4.69507313 86.81497004 -4.54052734 85.22265625 C-4.45523773 84.33586182 -4.36994812 83.44906738 -4.28207397 82.53540039 C-3.92308883 79.3086898 -3.2962024 76.17558124 -2.625 73 C-0.88590406 64.35758114 0.04881231 55.63185268 0.99755859 46.87304688 C1.11437988 45.79732422 1.23120117 44.72160156 1.3515625 43.61328125 C1.45291504 42.65204346 1.55426758 41.69080566 1.65869141 40.70043945 C1.98539663 38.11554208 2.48902692 35.5548654 3 33 C10.26 33 17.52 33 25 33 C24.5586791 43.76823007 23.63847718 53.52906227 21 64 C20.34 64 19.68 64 19 64 C19 65.65 19 67.3 19 69 C26.33277157 68.9583979 33.66478001 68.88613759 40.99707031 68.79248047 C43.49179189 68.76424201 45.98660342 68.74304188 48.48144531 68.72900391 C52.06622466 68.70761501 55.64991918 68.66098292 59.234375 68.609375 C60.90956207 68.60753204 60.90956207 68.60753204 62.61859131 68.60565186 C63.65936829 68.58593323 64.70014526 68.5662146 65.77246094 68.54589844 C66.68735291 68.53701599 67.60224487 68.52813354 68.54486084 68.51898193 C71.74880764 67.84171258 72.94356015 66.49139334 75 64 C80.37650942 52.08565513 80.45251045 35.82112943 80 23 C77.11102776 21.55551388 74.57509105 21.83517139 71.34716797 21.79467773 C70.66412598 21.78477814 69.98108398 21.77487854 69.27734375 21.76467896 C67.01566047 21.73304691 64.75395618 21.70829989 62.4921875 21.68359375 C60.92562305 21.66302569 59.35906417 21.64202925 57.79251099 21.62062073 C53.66616318 21.56538478 49.53976517 21.51598225 45.41333008 21.46777344 C41.20389326 21.41756952 36.9945295 21.36187767 32.78515625 21.30664062 C24.52349924 21.19904042 16.26178118 21.09759961 8 21 C7.8146167 20.10434326 7.6292334 19.20868652 7.43823242 18.28588867 C7.18404541 17.1126001 6.9298584 15.93931152 6.66796875 14.73046875 C6.42071045 13.56668701 6.17345215 12.40290527 5.91870117 11.20385742 C4.71644004 7.01111948 3.04052617 5.04052617 0 2 C0 1.34 0 0.68 0 0 Z " fill="#24201E" transform="translate(156,23)"/>
<path d="M0 0 C3.15910617 6.56122051 3.3274219 11.06699192 1 18 C-1.3742721 21.56140816 -2.97606547 22.12941596 -6.875 23.75 C-7.92429687 24.19859375 -8.97359375 24.6471875 -10.0546875 25.109375 C-12.9922326 25.99765124 -14.20126925 26.10867595 -17 25 C-17.12867289 16.93649887 -16.79681084 9.02502344 -16 1 C-15.26007812 1.18433594 -14.52015625 1.36867188 -13.7578125 1.55859375 C-10.98502153 2.0023974 -9.52136176 1.85640853 -6.875 1.0625 C-4.34719916 0.31989703 -2.6898277 0 0 0 Z " fill="#FFFFFF" transform="translate(22,76)"/>
<path d="M0 0 C0.33 0 0.66 0 1 0 C1.15490223 5.73138244 0.65244885 10.89349206 -0.5 16.5 C-0.64308594 17.22703125 -0.78617188 17.9540625 -0.93359375 18.703125 C-1.28233698 20.47009071 -1.64019723 22.23525309 -2 24 C-2.33 24 -2.66 24 -3 24 C-2.88509088 21.31173136 -2.75836801 18.62486531 -2.625 15.9375 C-2.5940625 15.18533203 -2.563125 14.43316406 -2.53125 13.65820312 C-2.27941541 8.81038719 -1.50831635 4.61691957 0 0 Z " fill="#A7A5A4" transform="translate(45,29)"/>
<path d="" fill="#FFFFFF" transform="translate(0,0)"/>
</svg>
