<svg class="svg-icon" style="width: 1.1103515625em;height: 1em;vertical-align: middle;fill: currentColor;overflow: hidden;" viewBox="0 0 1137 1024" version="1.1" xmlns="http://www.w3.org/2000/svg"><path d="M177.569067 63.867556h781.477558a33.864027 33.864027 0 0 0 35.600644-31.693257 33.864027 33.864027 0 0 0-35.600644-32.12741h-781.477558a33.864027 33.864027 0 0 0-35.600644 32.12741 33.864027 33.864027 0 0 0 35.600644 31.693257zM0 415.966611a130.24626 130.24626 0 0 0 106.367779 123.299792v420.695419H35.600644a33.864027 33.864027 0 0 0-35.600644 31.693256 33.864027 33.864027 0 0 0 35.600644 32.127411h1065.414403a32.127411 32.127411 0 1 0 0-63.820667h-70.767134v-420.695419a130.24626 130.24626 0 0 0 106.367779-123.299792v-32.127411H0z m426.339423 128.075488a135.45611 135.45611 0 0 0 141.968423-128.075488 135.890264 135.890264 0 0 0 141.968423 128.075488 135.890264 135.890264 0 0 0 142.402577-128.075488 130.24626 130.24626 0 0 0 106.367779 123.299792v420.695419H426.339423z m-248.770356-4.775696a130.24626 130.24626 0 0 0 106.801933-123.299792A130.24626 130.24626 0 0 0 390.738779 539.266403v420.695419H177.569067z"  /><path d="M355.138134 671.683434a33.864027 33.864027 0 0 0-35.600644-31.693257 33.429873 33.429873 0 0 0-35.16649 31.693257 31.259102 31.259102 0 0 0 17.366168 27.351714v73.806214a30.824948 30.824948 0 0 0-17.366168 26.91756 33.429873 33.429873 0 0 0 35.16649 32.127411 33.864027 33.864027 0 0 0 35.600644-32.127411 31.259102 31.259102 0 0 0-17.800322-26.91756v-73.806214a31.693256 31.693256 0 0 0 17.800322-27.351714zM994.647269 95.994967H141.968423L0 351.711789h1136.615692z m-694.646718 71.201288L229.233417 295.271744a19.536939 19.536939 0 0 1-16.063706 8.683084 16.063705 16.063705 0 0 1-7.814775 0 14.761243 14.761243 0 0 1-7.814776-21.273556l70.767135-129.812105a19.536939 19.536939 0 0 1 23.878481-7.380622 15.629551 15.629551 0 0 1 7.814775 21.70771z m142.402577 0L371.20184 295.271744a19.536939 19.536939 0 0 1-16.063706 8.683084A16.932014 16.932014 0 0 1 347.323359 303.954828a15.195397 15.195397 0 0 1-7.814776-21.273556l70.767135-129.812105a19.536939 19.536939 0 0 1 23.878481-7.380622 16.063705 16.063705 0 0 1 8.248929 21.70771z m143.70504 120.694867a16.932014 16.932014 0 0 1-17.800322 16.063706 16.932014 16.932014 0 0 1-17.800322-16.063706V159.815634a16.932014 16.932014 0 0 1 17.800322-15.629551 16.49786 16.49786 0 0 1 17.800322 15.629551z m204.052473 16.063706a19.971093 19.971093 0 0 1-8.683084 0 19.102785 19.102785 0 0 1-15.629551-8.24893l-77.713601-128.075489a15.195397 15.195397 0 0 1 7.380621-21.70771 18.668631 18.668631 0 0 1 23.878481 6.512313l77.713601 127.641335a15.195397 15.195397 0 0 1-6.946467 23.878481z m141.534269 0a17.800322 17.800322 0 0 1-8.24893 0 17.366168 17.366168 0 0 1-15.629551-8.683084l-71.201288-128.075489a15.629551 15.629551 0 0 1 7.814775-21.70771 19.102785 19.102785 0 0 1 23.878481 7.380622l71.201289 128.075488a15.195397 15.195397 0 0 1-7.814776 23.010173zM807.526809 680.366518l30.390794-30.390794-53.400966-53.835121-30.824948 30.390794a156.729666 156.729666 0 0 0-29.522486-12.156317v-43.41542h-75.976985v43.41542a149.349044 149.349044 0 0 0-29.956639 12.156317l-30.390794-30.390794L534.009664 651.278186l30.390794 30.390794a149.349044 149.349044 0 0 0-12.156317 29.95664h-43.41542v75.976985h43.41542s3.473234 9.985547 5.644004 15.195397c0 3.907388 3.473234 7.814776 5.644005 11.722163l-30.390794 30.824948 53.83512 53.400967 30.390794-30.390794 12.156318 5.644004 15.629551 5.644005v43.41542h75.976985v-43.41542l16.063705-5.644005 11.722163-5.644004 30.824949 30.390794 58.176662-52.098504-30.390794-30.824948c0-3.907388 3.907388-7.814776 5.644005-11.722164a105.065316 105.065316 0 0 0 5.20985-15.195397h43.41542v-78.58191h-43.41542a127.641334 127.641334 0 0 0-10.853855-29.956639z m-32.12741 71.201288v5.644005a9.551392 9.551392 0 0 0 0 3.473233v8.683084a89.869919 89.869919 0 0 1-63.820668 65.12313 86.83084 86.83084 0 0 1-46.020345 0 86.83084 86.83084 0 0 1-63.386513-65.12313 13.45878 13.45878 0 0 1 0-3.473233 21.70771 21.70771 0 0 1 0-5.209851 9.551392 9.551392 0 0 1 0-3.473233 23.010173 23.010173 0 0 1 0-5.644005v-10.853855-7.380621a40.810495 40.810495 0 0 1 0-6.946467v-2.170771l2.170771-6.078159a89.435765 89.435765 0 0 1 165.41275 0 33.864027 33.864027 0 0 1 2.170771 6.078159v2.170771a40.810495 40.810495 0 0 1 0 6.946467 43.41542 43.41542 0 0 1 0 7.380621 32.995719 32.995719 0 0 1 0 6.512313z"  /></svg>